<svg class="main-svg" xmlns="http://www.w3.org/2000/svg" xmlns:xlink="http://www.w3.org/1999/xlink" width="2200" height="1000" style="" viewBox="0 0 1100 500"><rect x="0" y="0" width="1100" height="500" style="fill: rgb(255, 255, 255); fill-opacity: 1;"/><defs id="defs-cebe19"><g class="clips"><clipPath id="clipcebe19xyplot" class="plotclip"><rect width="1022" height="385"/></clipPath><clipPath class="axesclip" id="clipcebe19x"><rect x="61" y="0" width="1022" height="500"/></clipPath><clipPath class="axesclip" id="clipcebe19y"><rect x="0" y="50" width="1100" height="385"/></clipPath><clipPath class="axesclip" id="clipcebe19xy"><rect x="61" y="50" width="1022" height="385"/></clipPath></g><g class="gradients"/><g class="patterns"/></defs><g class="bglayer"/><g class="layer-below"><g class="imagelayer"/><g class="shapelayer"/></g><g class="cartesianlayer"><g class="subplot xy"><g class="layer-subplot"><g class="shapelayer"/><g class="imagelayer"/></g><g class="minor-gridlayer"><g class="x"/><g class="y"/></g><g class="gridlayer"><g class="x"><path class="xgrid crisp" transform="translate(261.31,0)" d="M0,50v385" style="stroke: rgb(0, 0, 0); stroke-opacity: 0.05; stroke-width: 1px;"/><path class="xgrid crisp" transform="translate(465.71,0)" d="M0,50v385" style="stroke: rgb(0, 0, 0); stroke-opacity: 0.05; stroke-width: 1px;"/><path class="xgrid crisp" transform="translate(670.11,0)" d="M0,50v385" style="stroke: rgb(0, 0, 0); stroke-opacity: 0.05; stroke-width: 1px;"/><path class="xgrid crisp" transform="translate(874.51,0)" d="M0,50v385" style="stroke: rgb(0, 0, 0); stroke-opacity: 0.05; stroke-width: 1px;"/><path class="xgrid crisp" transform="translate(1078.9099999999999,0)" d="M0,50v385" style="stroke: rgb(0, 0, 0); stroke-opacity: 0.05; stroke-width: 1px;"/></g><g class="y"><path class="ygrid crisp" transform="translate(0,358)" d="M61,0h1022" style="stroke: rgb(0, 0, 0); stroke-opacity: 0.05; stroke-width: 1px;"/><path class="ygrid crisp" transform="translate(0,281)" d="M61,0h1022" style="stroke: rgb(0, 0, 0); stroke-opacity: 0.05; stroke-width: 1px;"/><path class="ygrid crisp" transform="translate(0,204)" d="M61,0h1022" style="stroke: rgb(0, 0, 0); stroke-opacity: 0.05; stroke-width: 1px;"/><path class="ygrid crisp" transform="translate(0,127)" d="M61,0h1022" style="stroke: rgb(0, 0, 0); stroke-opacity: 0.05; stroke-width: 1px;"/></g></g><g class="zerolinelayer"><path class="yzl zl crisp" transform="translate(0,435)" d="M61,0h1022" style="stroke: rgb(0, 0, 0); stroke-opacity: 0.05; stroke-width: 1px;"/></g><g class="layer-between"><g class="shapelayer"/><g class="imagelayer"/></g><path class="xlines-below"/><path class="ylines-below"/><g class="overlines-below"/><g class="xaxislayer-below"/><g class="yaxislayer-below"/><g class="overaxes-below"/><g class="overplot"><g class="xy" transform="translate(61,50)" clip-path="url(#clipcebe19xyplot)"><g class="scatterlayer mlayer"><g class="trace scatter trace501bff" style="stroke-miterlimit: 2; opacity: 1;"><g class="fills"/><g class="errorbars"/><g class="lines"><path class="js-line" d="M0,207.99L4.09,200.65L8.18,230.12L16.35,203.04L20.44,204.46L24.53,220.22L28.62,201.1L32.7,215.26L36.79,218.49L40.88,216.01L44.97,231.89L49.06,215.84L53.14,209.38L57.23,227.75L61.32,202.44L65.41,218.54L69.5,205.08L73.58,227.1L77.67,209.77L81.76,221.54L85.85,205.06L89.94,218.98L94.02,223.06L98.11,225.89L102.2,201.98L106.29,220.83L110.38,225.84L114.46,227.59L118.55,207.26L122.64,227.2L126.73,205.54L130.82,243.08L134.9,203.73L138.99,225.83L143.08,203.02L147.17,204.08L151.26,228.26L155.34,226.65L159.43,213.61L163.52,222.45L167.61,221.15L171.7,204.98L175.78,220.5L179.87,207.41L183.96,191.74L188.05,224.63L192.14,209.7L196.22,222.2L200.31,218.2L204.4,213.57L208.49,200.06L212.58,214.42L216.66,207.49L220.75,199.6L224.84,193.57L228.93,205.18L233.02,211.04L237.1,218.82L241.19,211.91L245.28,211.56L249.37,215.26L253.46,191.47L257.54,203.68L261.63,215.64L265.72,240.36L269.81,218.09L273.9,214.73L277.98,211.06L282.07,204.71L286.16,214.73L290.25,218.76L294.34,203.31L298.42,222.23L302.51,199.17L306.6,206.14L310.69,207.51L314.78,207.91L318.86,234.59L322.95,193.13L327.04,206.33L331.13,197.96L335.22,202.68L339.3,216.23L343.39,208.68L347.48,197.22L351.57,206.25L355.66,212.92L359.74,208.3L363.83,221.51L367.92,188.81L372.01,214.9L376.1,200.46L380.18,204.69L384.27,199.95L388.36,210.52L392.45,216L396.54,200.58L400.62,220.11L404.71,208.09L408.8,207.31L412.89,217.27L416.98,192.7L421.06,198.64L425.15,211.23L429.24,199.34L433.33,201.85L437.42,194.24L441.5,205.84L445.59,196.04L449.68,226.35L453.77,213.79L457.86,183.31L461.94,190.8L466.03,201.41L470.12,197.84L474.21,213.07L478.3,217.7L482.38,212.41L486.47,200.95L490.56,198.98L494.65,201.43L498.74,225.23L502.82,209.78L506.91,212.17L511,219.97L519.18,199.05L523.26,224.67L527.35,216.16L531.44,224.66L535.53,214.79L539.62,212.39L543.7,204.45L547.79,221.37L551.88,215.49L555.97,215.09L560.06,236.19L564.14,215.52L568.23,215.15L572.32,197.09L576.41,218.94L580.5,202.19L584.58,212.76L588.67,204.66L592.76,211.35L596.85,215.17L600.94,227.9L605.02,209.23L609.11,212.63L613.2,221.07L617.29,217.4L621.38,218.52L625.46,224.06L629.55,193.04L633.64,212.52L637.73,216L641.82,208.43L645.9,203.54L649.99,219.08L654.08,207.31L658.17,213.02L662.26,222.31L666.34,191.4L670.43,221.64L674.52,212.05L678.61,205.38L686.78,234.34L690.87,205.56L694.96,205.47L699.05,212.33L703.14,210.01L707.22,201.08L711.31,209.28L715.4,210.76L719.49,222.8L723.58,220.43L727.66,211.18L731.75,213.2L735.84,221.39L739.93,213.17L744.02,207.33L748.1,214.59L752.19,209.38L756.28,209.82L760.37,206.42L764.46,213.8L768.54,202.06L772.63,221.86L776.72,212.26L780.81,213.88L784.9,227.43L788.98,208.55L793.07,226.96L797.16,227.85L801.25,203.58L805.34,228.85L809.42,202.93L813.51,210.06L817.6,210.34L821.69,224.04L825.78,225.05L829.86,204.69L833.95,213.86L838.04,214L842.13,214.88L846.22,222.55L850.3,219.12L854.39,218.21L858.48,217.48L862.57,230.12L866.66,238.41L870.74,215.72L874.83,217.88L878.92,208.77L883.01,206.62L887.1,207.8L891.18,211.36L895.27,202.58L899.36,216.28L903.45,221.28L907.54,212.31L911.62,207.3L915.71,202.26L919.8,175.28L923.89,176.2L927.98,167.63L932.06,213.14L936.15,208.8L940.24,229.84L944.33,241.07L948.42,238.89L952.5,205.84L956.59,190.11L960.68,224.12L964.77,199.59L968.86,197.27L972.94,202.25L977.03,214.9L981.12,181.39L985.21,176.48L989.3,221.42L993.38,217.9L997.47,187.87L1001.56,176.2L1005.65,221.45L1009.74,219.95L1013.82,234.06L1017.91,236.72L1022,233.85" style="vector-effect: none; fill: none; stroke: rgb(124, 181, 236); stroke-opacity: 1; stroke-width: 2px; opacity: 1;"/></g><g class="points"/><g class="text"/></g></g></g></g><g class="zerolinelayer-above"/><path class="xlines-above crisp" d="M0,0" style="fill: none;"/><path class="ylines-above crisp" d="M0,0" style="fill: none;"/><g class="overlines-above"/><g class="xaxislayer-above"><g class="xtick"><text text-anchor="middle" x="0" y="451" transform="translate(261.31,0)" style="font-family: 'Lucida Grande', 'Open Sans', verdana, arial, sans-serif; font-size: 10px; fill: rgb(0, 0, 0); fill-opacity: 1; white-space: pre;">50</text></g><g class="xtick"><text text-anchor="middle" x="0" y="451" style="font-family: 'Lucida Grande', 'Open Sans', verdana, arial, sans-serif; font-size: 10px; fill: rgb(0, 0, 0); fill-opacity: 1; white-space: pre;" transform="translate(465.71,0)">100</text></g><g class="xtick"><text text-anchor="middle" x="0" y="451" style="font-family: 'Lucida Grande', 'Open Sans', verdana, arial, sans-serif; font-size: 10px; fill: rgb(0, 0, 0); fill-opacity: 1; white-space: pre;" transform="translate(670.11,0)">150</text></g><g class="xtick"><text text-anchor="middle" x="0" y="451" style="font-family: 'Lucida Grande', 'Open Sans', verdana, arial, sans-serif; font-size: 10px; fill: rgb(0, 0, 0); fill-opacity: 1; white-space: pre;" transform="translate(874.51,0)">200</text></g><g class="xtick"><text text-anchor="middle" x="0" y="451" style="font-family: 'Lucida Grande', 'Open Sans', verdana, arial, sans-serif; font-size: 10px; fill: rgb(0, 0, 0); fill-opacity: 1; white-space: pre;" transform="translate(1078.9099999999999,0)">250</text></g></g><g class="yaxislayer-above"><g class="ytick"><text text-anchor="end" x="55" y="3.5" transform="translate(0,435)" style="font-family: 'Lucida Grande', 'Open Sans', verdana, arial, sans-serif; font-size: 10px; fill: rgb(0, 0, 0); fill-opacity: 1; white-space: pre;">0%</text></g><g class="ytick"><text text-anchor="end" x="55" y="3.5" style="font-family: 'Lucida Grande', 'Open Sans', verdana, arial, sans-serif; font-size: 10px; fill: rgb(0, 0, 0); fill-opacity: 1; white-space: pre;" transform="translate(0,358)">20%</text></g><g class="ytick"><text text-anchor="end" x="55" y="3.5" style="font-family: 'Lucida Grande', 'Open Sans', verdana, arial, sans-serif; font-size: 10px; fill: rgb(0, 0, 0); fill-opacity: 1; white-space: pre;" transform="translate(0,281)">40%</text></g><g class="ytick"><text text-anchor="end" x="55" y="3.5" style="font-family: 'Lucida Grande', 'Open Sans', verdana, arial, sans-serif; font-size: 10px; fill: rgb(0, 0, 0); fill-opacity: 1; white-space: pre;" transform="translate(0,204)">60%</text></g><g class="ytick"><text text-anchor="end" x="55" y="3.5" style="font-family: 'Lucida Grande', 'Open Sans', verdana, arial, sans-serif; font-size: 10px; fill: rgb(0, 0, 0); fill-opacity: 1; white-space: pre;" transform="translate(0,127)">80%</text></g><g class="ytick"><text text-anchor="end" x="55" y="3.5" style="font-family: 'Lucida Grande', 'Open Sans', verdana, arial, sans-serif; font-size: 10px; fill: rgb(0, 0, 0); fill-opacity: 1; white-space: pre;" transform="translate(0,50)">100%</text></g></g><g class="overaxes-above"/></g></g><g class="polarlayer"/><g class="smithlayer"/><g class="ternarylayer"/><g class="geolayer"/><g class="funnelarealayer"/><g class="pielayer"/><g class="iciclelayer"/><g class="treemaplayer"/><g class="sunburstlayer"/><g class="glimages"/><defs id="topdefs-cebe19"><g class="clips"/></defs><g class="layer-above"><g class="imagelayer"/><g class="shapelayer"/></g><g class="infolayer"><g class="g-gtitle"><text class="gtitle" x="550" y="25" text-anchor="middle" dy="0em" style="opacity: 1; font-family: 'Lucida Grande', 'Open Sans', verdana, arial, sans-serif; font-size: 20px; fill: rgb(68, 68, 68); fill-opacity: 1; white-space: pre;"><tspan class="line" dy="0em" x="550" y="25">Fastp: Read GC Content</tspan><tspan class="line" dy="1.3em" x="550" y="25">​<tspan style="font-size:70%" dy="-0.6em">Read 1: Before filtering</tspan><tspan dy="0.42em">​</tspan></tspan></text></g><g class="g-xtitle"><text class="xtitle" x="572" y="487" text-anchor="middle" style="opacity: 0.3; font-family: 'Lucida Grande', 'Open Sans', verdana, arial, sans-serif; font-size: 14px; fill: rgb(0, 0, 0); fill-opacity: 1; white-space: pre;">Read Position</text></g><g class="g-ytitle"><text class="ytitle" transform="rotate(-90,23,242.5)" x="23" y="242.5" text-anchor="middle" style="opacity: 0.3; font-family: 'Lucida Grande', 'Open Sans', verdana, arial, sans-serif; font-size: 14px; fill: rgb(0, 0, 0); fill-opacity: 1; white-space: pre;">R1 Before filtering: Base Content Percent</text></g></g></svg>