<svg class="main-svg" xmlns="http://www.w3.org/2000/svg" xmlns:xlink="http://www.w3.org/1999/xlink" width="2200" height="1000" style="" viewBox="0 0 1100 500"><rect x="0" y="0" width="1100" height="500" style="fill: rgb(255, 255, 255); fill-opacity: 1;"/><defs id="defs-2c5849"><g class="clips"><clipPath id="clip2c5849xyplot" class="plotclip"><rect width="1023" height="385"/></clipPath><clipPath class="axesclip" id="clip2c5849x"><rect x="60" y="0" width="1023" height="500"/></clipPath><clipPath class="axesclip" id="clip2c5849y"><rect x="0" y="50" width="1100" height="385"/></clipPath><clipPath class="axesclip" id="clip2c5849xy"><rect x="60" y="50" width="1023" height="385"/></clipPath></g><g class="gradients"/><g class="patterns"/></defs><g class="bglayer"/><g class="layer-below"><g class="imagelayer"/><g class="shapelayer"/></g><g class="cartesianlayer"><g class="subplot xy"><g class="layer-subplot"><g class="shapelayer"/><g class="imagelayer"/></g><g class="minor-gridlayer"><g class="x"/><g class="y"/></g><g class="gridlayer"><g class="x"><path class="xgrid crisp" transform="translate(260.51,0)" d="M0,50v385" style="stroke: rgb(0, 0, 0); stroke-opacity: 0.05; stroke-width: 1px;"/><path class="xgrid crisp" transform="translate(465.11,0)" d="M0,50v385" style="stroke: rgb(0, 0, 0); stroke-opacity: 0.05; stroke-width: 1px;"/><path class="xgrid crisp" transform="translate(669.71,0)" d="M0,50v385" style="stroke: rgb(0, 0, 0); stroke-opacity: 0.05; stroke-width: 1px;"/><path class="xgrid crisp" transform="translate(874.31,0)" d="M0,50v385" style="stroke: rgb(0, 0, 0); stroke-opacity: 0.05; stroke-width: 1px;"/><path class="xgrid crisp" transform="translate(1078.9099999999999,0)" d="M0,50v385" style="stroke: rgb(0, 0, 0); stroke-opacity: 0.05; stroke-width: 1px;"/></g><g class="y"><path class="ygrid crisp" transform="translate(0,387.76)" d="M60,0h1023" style="stroke: rgb(0, 0, 0); stroke-opacity: 0.05; stroke-width: 1px;"/><path class="ygrid crisp" transform="translate(0,340.53)" d="M60,0h1023" style="stroke: rgb(0, 0, 0); stroke-opacity: 0.05; stroke-width: 1px;"/><path class="ygrid crisp" transform="translate(0,293.28999999999996)" d="M60,0h1023" style="stroke: rgb(0, 0, 0); stroke-opacity: 0.05; stroke-width: 1px;"/><path class="ygrid crisp" transform="translate(0,246.05)" d="M60,0h1023" style="stroke: rgb(0, 0, 0); stroke-opacity: 0.05; stroke-width: 1px;"/><path class="ygrid crisp" transform="translate(0,198.82)" d="M60,0h1023" style="stroke: rgb(0, 0, 0); stroke-opacity: 0.05; stroke-width: 1px;"/><path class="ygrid crisp" transform="translate(0,151.57999999999998)" d="M60,0h1023" style="stroke: rgb(0, 0, 0); stroke-opacity: 0.05; stroke-width: 1px;"/><path class="ygrid crisp" transform="translate(0,104.34)" d="M60,0h1023" style="stroke: rgb(0, 0, 0); stroke-opacity: 0.05; stroke-width: 1px;"/><path class="ygrid crisp" transform="translate(0,57.11)" d="M60,0h1023" style="stroke: rgb(0, 0, 0); stroke-opacity: 0.05; stroke-width: 1px;"/></g></g><g class="zerolinelayer"><path class="yzl zl crisp" transform="translate(0,435)" d="M60,0h1023" style="stroke: rgb(0, 0, 0); stroke-opacity: 0.05; stroke-width: 1px;"/></g><g class="layer-between"><g class="shapelayer"/><g class="imagelayer"/></g><path class="xlines-below"/><path class="ylines-below"/><g class="overlines-below"/><g class="xaxislayer-below"/><g class="yaxislayer-below"/><g class="overaxes-below"/><g class="overplot"><g class="xy" transform="translate(60,50)" clip-path="url(#clip2c5849xyplot)"><g class="scatterlayer mlayer"><g class="trace scatter trace4e286f" style="stroke-miterlimit: 2; opacity: 1;"><g class="fills"/><g class="errorbars"/><g class="lines"><path class="js-line" d="M0,64.86L8.18,61.83L12.28,61.44L16.37,61.71L20.46,41.52L24.55,41.25L28.64,41.91L45.01,40.88L49.1,27.39L57.29,27.18L61.38,27.21L85.93,27.73L90.02,19.99L114.58,19.52L118.67,21.68L122.76,19.94L126.85,20.39L130.94,19.43L135.04,19.25L139.13,20.38L143.22,19.77L147.31,21.15L151.4,20.03L180.05,20.74L184.14,20.37L188.23,20.03L192.32,20.79L196.42,21.05L200.51,20.26L204.6,21.09L208.69,20.25L229.15,21.18L233.24,19.76L282.35,20L286.44,20.54L323.27,20.92L327.36,21.61L335.54,21.59L339.64,21.83L380.56,21.5L384.65,22L392.83,22.77L396.92,22.23L413.29,22.11L417.38,22.59L437.84,23.09L441.94,22.78L450.12,23.62L454.21,22.93L458.3,23.6L462.4,23.27L470.58,24.13L474.67,23.82L482.86,23.87L486.95,24.26L491.04,24.47L495.13,23.6L503.32,24.35L507.41,24.39L515.59,25.71L519.68,25.25L536.05,29.3L540.14,29.7L552.42,30.03L556.51,29.76L564.7,30.28L568.79,30.25L589.25,30.07L593.34,30.94L597.43,30.65L601.52,32L605.62,31.29L609.71,32.01L626.08,31.2L630.17,32.71L638.35,31.38L642.44,31.9L650.63,32.69L654.72,33.11L662.9,32.37L667,34.19L671.09,33.56L675.18,33.69L679.27,33.05L683.36,33.91L687.46,33.03L691.55,33.9L703.82,33.44L707.92,33.93L728.38,34.37L732.47,34.26L736.56,35.77L740.65,35.1L748.84,36.33L752.93,36.11L757.02,35.75L761.11,36.78L777.48,37.68L781.57,38.18L793.85,37.85L797.94,38.58L802.03,38.32L806.12,39.05L814.31,38.99L818.4,40.27L822.49,40.47L826.58,39.21L830.68,41.05L834.77,40.34L842.95,40.96L847.04,43L851.14,41.75L855.23,42.58L859.32,42.84L863.41,42.21L867.5,42.53L871.6,43.76L875.69,45.37L879.78,43.26L887.96,44.31L892.06,43.5L896.15,44.82L900.24,44.49L908.42,46.59L912.52,46.64L916.61,45.85L920.7,48.26L924.79,45.96L928.88,46.48L932.98,49.29L937.07,49.46L945.25,51.34L949.34,48.26L953.44,47.79L957.53,48.69L965.71,51.82L969.8,51.32L973.9,51.67L977.99,54.72L986.17,54.25L990.26,54.86L994.36,54.46L998.45,55.79L1002.54,56.99L1006.63,56.1L1010.72,58.98L1014.82,56.67L1018.91,56.12L1023,137" style="vector-effect: none; fill: none; stroke: rgb(124, 181, 236); stroke-opacity: 1; stroke-width: 2px; opacity: 1;"/></g><g class="points"/><g class="text"/></g></g></g></g><g class="zerolinelayer-above"/><path class="xlines-above crisp" d="M0,0" style="fill: none;"/><path class="ylines-above crisp" d="M0,0" style="fill: none;"/><g class="overlines-above"/><g class="xaxislayer-above"><g class="xtick"><text text-anchor="middle" x="0" y="451" transform="translate(260.51,0)" style="font-family: 'Lucida Grande', 'Open Sans', verdana, arial, sans-serif; font-size: 10px; fill: rgb(0, 0, 0); fill-opacity: 1; white-space: pre;">50</text></g><g class="xtick"><text text-anchor="middle" x="0" y="451" style="font-family: 'Lucida Grande', 'Open Sans', verdana, arial, sans-serif; font-size: 10px; fill: rgb(0, 0, 0); fill-opacity: 1; white-space: pre;" transform="translate(465.11,0)">100</text></g><g class="xtick"><text text-anchor="middle" x="0" y="451" style="font-family: 'Lucida Grande', 'Open Sans', verdana, arial, sans-serif; font-size: 10px; fill: rgb(0, 0, 0); fill-opacity: 1; white-space: pre;" transform="translate(669.71,0)">150</text></g><g class="xtick"><text text-anchor="middle" x="0" y="451" style="font-family: 'Lucida Grande', 'Open Sans', verdana, arial, sans-serif; font-size: 10px; fill: rgb(0, 0, 0); fill-opacity: 1; white-space: pre;" transform="translate(874.31,0)">200</text></g><g class="xtick"><text text-anchor="middle" x="0" y="451" style="font-family: 'Lucida Grande', 'Open Sans', verdana, arial, sans-serif; font-size: 10px; fill: rgb(0, 0, 0); fill-opacity: 1; white-space: pre;" transform="translate(1078.9099999999999,0)">250</text></g></g><g class="yaxislayer-above"><g class="ytick"><text text-anchor="end" x="54" y="3.5" transform="translate(0,435)" style="font-family: 'Lucida Grande', 'Open Sans', verdana, arial, sans-serif; font-size: 10px; fill: rgb(0, 0, 0); fill-opacity: 1; white-space: pre;">0</text></g><g class="ytick"><text text-anchor="end" x="54" y="3.5" style="font-family: 'Lucida Grande', 'Open Sans', verdana, arial, sans-serif; font-size: 10px; fill: rgb(0, 0, 0); fill-opacity: 1; white-space: pre;" transform="translate(0,387.76)">5</text></g><g class="ytick"><text text-anchor="end" x="54" y="3.5" style="font-family: 'Lucida Grande', 'Open Sans', verdana, arial, sans-serif; font-size: 10px; fill: rgb(0, 0, 0); fill-opacity: 1; white-space: pre;" transform="translate(0,340.53)">10</text></g><g class="ytick"><text text-anchor="end" x="54" y="3.5" style="font-family: 'Lucida Grande', 'Open Sans', verdana, arial, sans-serif; font-size: 10px; fill: rgb(0, 0, 0); fill-opacity: 1; white-space: pre;" transform="translate(0,293.28999999999996)">15</text></g><g class="ytick"><text text-anchor="end" x="54" y="3.5" style="font-family: 'Lucida Grande', 'Open Sans', verdana, arial, sans-serif; font-size: 10px; fill: rgb(0, 0, 0); fill-opacity: 1; white-space: pre;" transform="translate(0,246.05)">20</text></g><g class="ytick"><text text-anchor="end" x="54" y="3.5" style="font-family: 'Lucida Grande', 'Open Sans', verdana, arial, sans-serif; font-size: 10px; fill: rgb(0, 0, 0); fill-opacity: 1; white-space: pre;" transform="translate(0,198.82)">25</text></g><g class="ytick"><text text-anchor="end" x="54" y="3.5" style="font-family: 'Lucida Grande', 'Open Sans', verdana, arial, sans-serif; font-size: 10px; fill: rgb(0, 0, 0); fill-opacity: 1; white-space: pre;" transform="translate(0,151.57999999999998)">30</text></g><g class="ytick"><text text-anchor="end" x="54" y="3.5" style="font-family: 'Lucida Grande', 'Open Sans', verdana, arial, sans-serif; font-size: 10px; fill: rgb(0, 0, 0); fill-opacity: 1; white-space: pre;" transform="translate(0,104.34)">35</text></g><g class="ytick"><text text-anchor="end" x="54" y="3.5" style="font-family: 'Lucida Grande', 'Open Sans', verdana, arial, sans-serif; font-size: 10px; fill: rgb(0, 0, 0); fill-opacity: 1; white-space: pre;" transform="translate(0,57.11)">40</text></g></g><g class="overaxes-above"/></g></g><g class="polarlayer"/><g class="smithlayer"/><g class="ternarylayer"/><g class="geolayer"/><g class="funnelarealayer"/><g class="pielayer"/><g class="iciclelayer"/><g class="treemaplayer"/><g class="sunburstlayer"/><g class="glimages"/><defs id="topdefs-2c5849"><g class="clips"/></defs><g class="layer-above"><g class="imagelayer"/><g class="shapelayer"/></g><g class="infolayer"><g class="g-gtitle"><text class="gtitle" x="550" y="25" text-anchor="middle" dy="0em" style="opacity: 1; font-family: 'Lucida Grande', 'Open Sans', verdana, arial, sans-serif; font-size: 20px; fill: rgb(68, 68, 68); fill-opacity: 1; white-space: pre;"><tspan class="line" dy="0em" x="550" y="25">Fastp: Sequence Quality</tspan><tspan class="line" dy="1.3em" x="550" y="25">​<tspan style="font-size:70%" dy="-0.6em">Read 1: After filtering</tspan><tspan dy="0.42em">​</tspan></tspan></text></g><g class="g-xtitle"><text class="xtitle" x="571.5" y="487" text-anchor="middle" style="opacity: 0.3; font-family: 'Lucida Grande', 'Open Sans', verdana, arial, sans-serif; font-size: 14px; fill: rgb(0, 0, 0); fill-opacity: 1; white-space: pre;">Read Position</text></g><g class="g-ytitle"><text class="ytitle" transform="rotate(-90,22,242.5)" x="22" y="242.5" text-anchor="middle" style="opacity: 0.3; font-family: 'Lucida Grande', 'Open Sans', verdana, arial, sans-serif; font-size: 14px; fill: rgb(0, 0, 0); fill-opacity: 1; white-space: pre;">R1 After filtering: Sequence Quality</text></g></g></svg>